<svg xmlns="http://www.w3.org/2000/svg" width="430" height="430" fill="none" viewBox="0 0 430 430"><path fill="#ffc738" d="m292.201 167.879 12.46-88.5a3 3 0 0 0-2.56-3.39l-27.06-3.81a3 3 0 0 0-3.38 2.54l-19.19 136.33-3 1.93V58.719a3 3 0 0 0-3-3h-27.29a3 3 0 0 0-3 3v163.72h-2.85l-4.84-127.72a2.997 2.997 0 0 0-3.11-2.89l-27.32 1a3 3 0 0 0-2.88 3.11l4.25 112.18.17 4.25.83.51-1-4.78-29.33-141.57a3 3 0 0 0-3.54-2.33l-26.79 5.52a3 3 0 0 0-2.34 2.378c-.074.387-.07.786.01 1.172l19.66 94.61 16.88 84.06 64.81 12.84 63-8.56z"/><path fill="#ffc738" d="M272.828 72.752a3 3 0 0 1 2.213-.573l13.53 1.905-24.812 184.585-16.271 2.211 4.983-49.831 19.19-136.33a3 3 0 0 1 1.167-1.967M217.06 56.597a3 3 0 0 1 2.121-.878h13.645v207.153l-14.035 1.907-2.61-42.34V58.719a3 3 0 0 1 .879-2.122m-41.082 37.191a3 3 0 0 1 2.083-.96l13.66-.5 6.873 168.449-13.645-2.703-4.518-45.196-.83-.51-.17-4.25-4.25-112.18a3 3 0 0 1 .797-2.15m-57.286-23.612a3 3 0 0 1 1.079-.457l13.395-2.76 39.512 188.684-18.697-3.704-16.88-84.06-19.66-94.61a3 3 0 0 1 1.251-3.093" opacity=".5" style="mix-blend-mode:multiply"/><path fill="#f24c00" stroke="#f24c00" d="M314.853 171.087v.002l-16.14 200.39a2.494 2.494 0 0 1-2.394 2.299 2.5 2.5 0 0 1-1.173-.241l-.004-.001a188.5 188.5 0 0 0-80.143-17.567c-13.493 0-45.977 1.393-80.132 17.568l-.001.001a2.5 2.5 0 0 1-2.321-.09 2.5 2.5 0 0 1-1.246-1.96q-8.06-100.2-16.15-200.399v-.002a2.5 2.5 0 0 1 .127-1.021 2.52 2.52 0 0 1 1.366-1.479 2.5 2.5 0 0 1 1.007-.208h35.95l.002.053c.008 30.175 27.577 54.537 61.5 54.537 33.928 0 61.5-24.369 61.5-54.55v-.04h35.897a2.507 2.507 0 0 1 2.355 2.708Z"/><g opacity=".5" style="mix-blend-mode:multiply"><path fill="#f24c00" d="M159.331 327.719a243.76 243.76 0 0 1 112.5.28z"/><path stroke="#f24c00" stroke-linecap="round" stroke-linejoin="round" stroke-width="7" d="M159.331 327.719a243.76 243.76 0 0 1 112.5.28"/></g><g opacity=".5" style="mix-blend-mode:multiply"><path fill="#f24c00" d="M117.65 168.379a2.5 2.5 0 0 0-1.843.801 2.5 2.5 0 0 0-.657 1.899q8.08 100.209 16.15 200.409c.034.402.164.789.381 1.129a2.495 2.495 0 0 0 3.176.92M117.65 168.379l17.421 205.61-.213-.452h-.001M117.65 168.379h17.548m-17.549 0h17.549m-.342 205.158c28.301-13.411 55.461-16.666 71.617-17.388-15.458-2.792-27.564-12.563-37.03-26.257-11.133-16.104-18.647-37.674-23.721-59.845-10.001-43.699-10.557-89.9-10.524-101.668m-.342 205.158.342-205.158"/><path stroke="#f24c00" d="M117.65 168.379a2.5 2.5 0 0 0-1.843.801 2.5 2.5 0 0 0-.657 1.899q8.08 100.209 16.15 200.409c.034.402.164.789.381 1.129a2.495 2.495 0 0 0 3.176.92M117.65 168.379l17.421 205.61-.213-.452h-.001M117.65 168.379h17.549m-17.549 0h17.549m-.342 205.158c28.301-13.411 55.461-16.666 71.617-17.388-15.458-2.792-27.564-12.563-37.03-26.257-11.133-16.104-18.647-37.674-23.721-59.845-10.001-43.699-10.557-89.9-10.524-101.668m-.342 205.158.342-205.158"/></g></svg>